HIERARCHY
ROOT pelvis
{
  OFFSET 0 100 0
  CHANNELS 6 Xposition Yposition Zposition Zrotation Xrotation Yrotation
  JOINT pelvis_right_femur
  {
    OFFSET -10.78128 -3.44521 -0.5502486
    CHANNELS 3 Zrotation Xrotation Yrotation
    JOINT right_femur_tibia
    {
      OFFSET -0.8047443 -44.0398 -0.1307829
      CHANNELS 3 Zrotation Xrotation Yrotation
      JOINT right_tibia_foot
      {
        OFFSET 3.006224 -47.83518 -5
        CHANNELS 3 Zrotation Xrotation Yrotation
        End Site
        {
          OFFSET 0 -5 15
        }
      }
    }
  }
  JOINT pelvis_left_femur
  {
    OFFSET 10.78128 -3.44521 -0.5502486
    CHANNELS 3 Zrotation Xrotation Yrotation
    JOINT left_femur_tibia
    {
      OFFSET 0.8047443 -44.0398 -0.1307829
      CHANNELS 3 Zrotation Xrotation Yrotation
      JOINT left_tibia_foot
      {
        OFFSET -4.370144 -48.10324 -4.275266
        CHANNELS 3 Zrotation Xrotation Yrotation
        End Site
        {
          OFFSET 0 -5 15
        }
      }
    }
  }
  JOINT pelvis_spine1
  {
    OFFSET 0 6.468898 -3.129235
    CHANNELS 3 Zrotation Xrotation Yrotation
    JOINT spine1
    {
      OFFSET 0 23.15396 4.99043
      CHANNELS 3 Zrotation Xrotation Yrotation
      JOINT spine2
      {
        OFFSET 0 20.79997 -5.064912
        CHANNELS 3 Zrotation Xrotation Yrotation
        JOINT neck
        {
          OFFSET 0 14.38658 9.616178
          CHANNELS 3 Zrotation Xrotation Yrotation
          End Site
          {
            OFFSET 0 20 0
          }
        }
      }
      JOINT right_manubrium
      {
        OFFSET -5.722621 16.35077 3.967754
        CHANNELS 3 Zrotation Xrotation Yrotation
        JOINT right_clavicle
        {
          OFFSET -13.16364 1.694482 -4.693211
          CHANNELS 3 Zrotation Xrotation Yrotation
          JOINT right_humerus
          {
            OFFSET -28.5034 -0.3100689 -2.792744
            CHANNELS 3 Zrotation Xrotation Yrotation
            JOINT right_radius
            {
              OFFSET -25.15693 0.02248979 -1.271978
              CHANNELS 3 Zrotation Xrotation Yrotation
              End Site
              {
                OFFSET -15 0 0
              }
            }
          }
        }
      }
      JOINT left_manubrium
      {
        OFFSET 5.722621 16.35077 3.967754
        CHANNELS 3 Zrotation Xrotation Yrotation
        JOINT left_clavicle
        {
          OFFSET 13.16364 1.694482 -4.693211
          CHANNELS 3 Zrotation Xrotation Yrotation
          JOINT left_humerus
          {
            OFFSET 29.39168 -1.063119 -2.237045
            CHANNELS 3 Zrotation Xrotation Yrotation
            JOINT left_radius
            {
              OFFSET 24.59957 -0.9528479 0.9047498
              CHANNELS 3 Zrotation Xrotation Yrotation
              End Site
              {
                OFFSET 15 -0 -0
              }
            }
          }
        }
      }
    }
  }
}
MOTION
Frames: 6
Frame Time: 0.0416666666667
0 103.5113 0 0.02965054 -0.8495204 0.1607893 4.44575 -15.00714 8.792235 1.762971e-06 36.198 -1.475619e-06 -7.245566 -18.4518 -3.697043 -6.139193 7.312466 -23.00123 -5.13277e-07 5.028933 -4.251943e-08 5.132353 -17.27957 24.29789 -2.93364 -2.227599 4.269764 2.38393 8.2658 -7.225342 1.343135 22.26147 6.534799 2.673766 -24.38691 9.323673 5.665438 -20.3036 11.17255 84.29332 35.25542 -16.37837 1.703265e-07 1.258976e-07 17.97592 -5.647177 7.940669 4.656229 4.921593 -18.08695 -1.287133 -96.37006 29.86304 26.16691 -1.217439e-07 4.189008e-08 -13.54709 3.620855 17.75431 10.25476
0.3927594 103.5285 1.553518 0.08507337 -0.8641725 0.4195943 4.426403 -16.67085 8.982384 1.761533e-06 38.2804 -1.468777e-06 -6.801231 -17.30991 -3.942481 -6.258367 9.060584 -23.09193 -4.811545e-07 4.914251 4.142809e-08 5.297489 -17.75384 24.09751 -3.031659 -2.340834 4.12834 2.422261 8.467288 -7.498381 1.29962 22.15238 6.680289 2.711541 -24.43813 9.419011 5.874195 -20.12902 11.23293 85.03235 35.28896 -17.36136 1.683961e-07 1.369648e-07 17.63563 -5.794378 8.257997 4.578337 4.911254 -18.37811 -1.458976 -95.97211 29.86737 25.59486 -1.272973e-07 5.002474e-08 -14.32221 3.580875 17.51538 10.39347
0.776642 103.5906 3.1991 0.1130904 -0.6991276 0.7505673 4.453962 -18.57033 8.904201 1.759455e-06 38.72454 -1.439492e-06 -6.523408 -16.13481 -4.060493 -6.307695 10.71057 -22.95429 -3.788505e-07 4.822087 1.259178e-07 5.347954 -18.28836 23.72218 -3.09628 -2.426376 3.968656 2.503476 8.624651 -7.801528 1.221448 22.03305 6.844083 2.78866 -24.566 9.459972 6.000639 -19.90069 11.28147 85.80467 35.40046 -18.44487 1.586264e-07 1.405984e-07 17.04264 -6.054116 8.559072 4.572916 5.010027 -18.83549 -1.629415 -95.33238 29.76706 24.69052 -1.163033e-07 5.890021e-08 -15.51632 3.742023 17.29115 10.27634
1.135541 103.6367 4.997629 0.1093239 -0.3250475 1.128998 4.502567 -20.59589 8.545878 1.737276e-06 37.53199 -1.375581e-06 -6.428186 -14.90227 -4.00723 -6.308911 12.13969 -22.58144 -2.081849e-07 4.795229 2.094384e-07 5.269638 -18.84254 23.1657 -3.129126 -2.485545 3.805421 2.626144 8.734541 -8.124441 1.099272 21.89512 7.035991 2.917543 -24.79657 9.439432 6.061906 -19.62703 11.32467 86.55326 35.64339 -19.58203 1.397345e-07 1.342516e-07 16.20311 -6.436055 8.837548 4.66577 5.207105 -19.44229 -1.783538 -94.4762 29.55551 23.51844 -8.651496e-08 6.692729e-08 -17.09177 4.093099 17.07021 9.925153
1.452274 103.5847 7.009969 0.0726173 0.2120581 1.524396 4.572676 -22.7093 7.95273 1.716512e-06 34.62321 -1.290086e-06 -6.45983 -13.79241 -3.83765 -6.247486 13.31863 -21.96963 2.570426e-08 4.821895 2.846853e-07 5.032046 -19.42188 22.45486 -3.124599 -2.504753 3.651636 2.784746 8.786635 -8.459853 0.9517476 21.762 7.234815 3.073353 -25.08543 9.370264 6.04336 -19.31989 11.3587 87.33349 35.96212 -20.76997 1.124718e-07 1.22816e-07 15.19087 -6.943922 9.119792 4.846988 5.507905 -20.18213 -1.914186 -93.49088 29.24166 22.09534 -4.262588e-08 7.393437e-08 -19.03809 4.584832 16.84077 9.394283
1.71986 103.3996 9.263629 0.006109344 0.8557337 1.913807 4.626813 -24.62997 7.198764 1.690952e-06 30.70984 -1.194881e-06 -6.629361 -12.75125 -3.541154 -6.163733 14.14398 -21.2105 2.796213e-07 5.064031 3.449237e-07 4.668552 -19.90265 21.64261 -3.089072 -2.491933 3.515612 2.954865 8.784035 -8.7618 0.7867225 21.61866 7.430251 3.251851 -25.40902 9.252764 5.981012 -18.98032 11.37761 87.9392 36.36328 -21.83897 8.146586e-08 1.04295e-07 14.06399 -7.489148 9.348466 5.084523 5.842627 -20.93396 -2.005551 -92.39604 28.86766 20.59614 1.184959e-08 7.721023e-08 -21.05018 5.15117 16.60728 8.759052
